<mxfile host="app.diagrams.net" modified="2022-04-29T17:30:42.422Z" agent="5.0 (Macintosh; Intel Mac OS X 10_15_7) AppleWebKit/537.36 (KHTML, like Gecko) Chrome/100.0.4896.127 Safari/537.36" etag="3tFUBPqZZoGZaPt7qdX2" version="17.5.0" type="github">
  <diagram id="eKfHsIOuFBO9F4PtvDiy" name="Page-1">
    <mxGraphModel dx="764" dy="1611" grid="1" gridSize="10" guides="1" tooltips="1" connect="1" arrows="1" fold="1" page="1" pageScale="1" pageWidth="827" pageHeight="1169" math="0" shadow="0">
      <root>
        <mxCell id="0" />
        <mxCell id="1" parent="0" />
        <mxCell id="nQRCEj2XKWMkgmMzYywE-7" value="" style="rounded=0;whiteSpace=wrap;html=1;points=[[0,0,0,0,0],[0,0.23,0,0,0],[0,0.5,0,0,0],[0,0.77,0,0,0],[0,1,0,0,0],[0.27,0,0,0,0],[0.27,1,0,0,0],[0.5,0,0,0,0],[0.5,1,0,0,0],[0.57,0.5,0,0,0],[0.77,0,0,0,0],[0.77,1,0,0,0],[1,0,0,0,0],[1,0.27,0,0,0],[1,0.77,0,0,0],[1,1,0,0,0]];" vertex="1" parent="1">
          <mxGeometry x="613" y="295" width="30" height="30" as="geometry" />
        </mxCell>
        <mxCell id="bylUsNGu8Ya3y7Lyso6u-61" value="static link" style="rounded=0;whiteSpace=wrap;html=1;" parent="1" vertex="1">
          <mxGeometry x="140" y="340" width="120" height="30" as="geometry" />
        </mxCell>
        <mxCell id="bylUsNGu8Ya3y7Lyso6u-62" value="dynamic link" style="rounded=0;whiteSpace=wrap;html=1;" parent="1" vertex="1">
          <mxGeometry x="140" y="370" width="120" height="30" as="geometry" />
        </mxCell>
        <mxCell id="bylUsNGu8Ya3y7Lyso6u-63" value="reutrn" style="rounded=0;whiteSpace=wrap;html=1;" parent="1" vertex="1">
          <mxGeometry x="140" y="400" width="120" height="30" as="geometry" />
        </mxCell>
        <mxCell id="bylUsNGu8Ya3y7Lyso6u-50" value="" style="rounded=0;whiteSpace=wrap;html=1;points=[[0,0,0,0,0],[0,0.23,0,0,0],[0,0.5,0,0,0],[0,0.77,0,0,0],[0,1,0,0,0],[0.27,0,0,0,0],[0.27,1,0,0,0],[0.5,0,0,0,0],[0.5,1,0,0,0],[0.57,0.5,0,0,0],[0.77,0,0,0,0],[0.77,1,0,0,0],[1,0,0,0,0],[1,0.27,0,0,0],[1,0.77,0,0,0],[1,1,0,0,0]];" parent="1" vertex="1">
          <mxGeometry x="260" y="100" width="30" height="30" as="geometry" />
        </mxCell>
        <mxCell id="bylUsNGu8Ya3y7Lyso6u-60" style="edgeStyle=orthogonalEdgeStyle;rounded=0;orthogonalLoop=1;jettySize=auto;html=1;exitX=0.57;exitY=0.5;exitDx=0;exitDy=0;exitPerimeter=0;entryX=1;entryY=0;entryDx=0;entryDy=0;entryPerimeter=0;" parent="1" source="bylUsNGu8Ya3y7Lyso6u-50" target="bylUsNGu8Ya3y7Lyso6u-19" edge="1">
          <mxGeometry relative="1" as="geometry">
            <Array as="points">
              <mxPoint x="326" y="115" />
              <mxPoint x="326" y="250" />
            </Array>
          </mxGeometry>
        </mxCell>
        <mxCell id="bylUsNGu8Ya3y7Lyso6u-29" value="" style="rounded=0;whiteSpace=wrap;html=1;points=[[0,0,0,0,0],[0,0.23,0,0,0],[0,0.5,0,0,0],[0,0.77,0,0,0],[0,1,0,0,0],[0.27,0,0,0,0],[0.27,1,0,0,0],[0.5,0,0,0,0],[0.5,1,0,0,0],[0.57,0.5,0,0,0],[0.77,0,0,0,0],[0.77,1,0,0,0],[1,0,0,0,0],[1,0.27,0,0,0],[1,0.77,0,0,0],[1,1,0,0,0]];" parent="1" vertex="1">
          <mxGeometry x="260" y="190" width="30" height="30" as="geometry" />
        </mxCell>
        <mxCell id="bylUsNGu8Ya3y7Lyso6u-20" value="" style="rounded=0;whiteSpace=wrap;html=1;points=[[0,0,0,0,0],[0,0.23,0,0,0],[0,0.5,0,0,0],[0,0.77,0,0,0],[0,1,0,0,0],[0.27,0,0,0,0],[0.27,1,0,0,0],[0.5,0,0,0,0],[0.5,1,0,0,0],[0.57,0.5,0,0,0],[0.77,0,0,0,0],[0.77,1,0,0,0],[1,0,0,0,0],[1,0.27,0,0,0],[1,0.77,0,0,0],[1,1,0,0,0]];" parent="1" vertex="1">
          <mxGeometry x="260" y="280" width="30" height="30" as="geometry" />
        </mxCell>
        <mxCell id="bylUsNGu8Ya3y7Lyso6u-23" value="" style="rounded=0;whiteSpace=wrap;html=1;points=[[0,0,0,0,0],[0,0.23,0,0,0],[0,0.5,0,0,0],[0,0.77,0,0,0],[0,1,0,0,0],[0.27,0,0,0,0],[0.27,1,0,0,0],[0.5,0,0,0,0],[0.5,1,0,0,0],[0.57,0.5,0,0,0],[0.77,0,0,0,0],[0.77,1,0,0,0],[1,0,0,0,0],[1,0.27,0,0,0],[1,0.77,0,0,0],[1,1,0,0,0]];fontStyle=1" parent="1" vertex="1">
          <mxGeometry x="260" y="340" width="30" height="30" as="geometry" />
        </mxCell>
        <mxCell id="bylUsNGu8Ya3y7Lyso6u-10" value="static link" style="rounded=0;whiteSpace=wrap;html=1;" parent="1" vertex="1">
          <mxGeometry x="140" y="250" width="120" height="30" as="geometry" />
        </mxCell>
        <mxCell id="bylUsNGu8Ya3y7Lyso6u-11" value="dynamic link" style="rounded=0;whiteSpace=wrap;html=1;" parent="1" vertex="1">
          <mxGeometry x="140" y="280" width="120" height="30" as="geometry" />
        </mxCell>
        <mxCell id="bylUsNGu8Ya3y7Lyso6u-12" value="reutrn to (Bigsub)" style="rounded=0;whiteSpace=wrap;html=1;" parent="1" vertex="1">
          <mxGeometry x="140" y="310" width="120" height="30" as="geometry" />
        </mxCell>
        <mxCell id="bylUsNGu8Ya3y7Lyso6u-15" value="" style="rounded=0;whiteSpace=wrap;html=1;points=[[0,0,0,0,0],[0,0.23,0,0,0],[0,0.5,0,0,0],[0,0.77,0,0,0],[0,1,0,0,0],[0.27,0,0,0,0],[0.27,1,0,0,0],[0.5,0,0,0,0],[0.5,1,0,0,0],[0.57,0.5,0,0,0],[0.77,0,0,0,0],[0.77,1,0,0,0],[1,0,0,0,0],[1,0.27,0,0,0],[1,0.77,0,0,0],[1,1,0,0,0]];" parent="1" vertex="1">
          <mxGeometry x="260" y="250" width="30" height="30" as="geometry" />
        </mxCell>
        <mxCell id="bylUsNGu8Ya3y7Lyso6u-19" value="" style="rounded=0;whiteSpace=wrap;html=1;points=[[0,0,0,0,0],[0,0.23,0,0,0],[0,0.5,0,0,0],[0,0.77,0,0,0],[0,1,0,0,0],[0.27,0,0,0,0],[0.27,1,0,0,0],[0.5,0,0,0,0],[0.5,1,0,0,0],[0.57,0.5,0,0,0],[0.77,0,0,0,0],[0.77,1,0,0,0],[1,0,0,0,0],[1,0.27,0,0,0],[1,0.77,0,0,0],[1,1,0,0,0]];" parent="1" vertex="1">
          <mxGeometry x="260" y="250" width="30" height="30" as="geometry" />
        </mxCell>
        <mxCell id="bylUsNGu8Ya3y7Lyso6u-58" style="edgeStyle=orthogonalEdgeStyle;rounded=0;orthogonalLoop=1;jettySize=auto;html=1;exitX=0.57;exitY=0.5;exitDx=0;exitDy=0;exitPerimeter=0;entryX=1;entryY=1;entryDx=0;entryDy=0;entryPerimeter=0;" parent="1" source="bylUsNGu8Ya3y7Lyso6u-20" target="bylUsNGu8Ya3y7Lyso6u-66" edge="1">
          <mxGeometry relative="1" as="geometry">
            <mxPoint x="296" y="370" as="targetPoint" />
            <Array as="points">
              <mxPoint x="316" y="295" />
              <mxPoint x="316" y="430" />
            </Array>
          </mxGeometry>
        </mxCell>
        <mxCell id="bylUsNGu8Ya3y7Lyso6u-21" value="" style="rounded=0;whiteSpace=wrap;html=1;points=[[0,0,0,0,0],[0,0.23,0,0,0],[0,0.5,0,0,0],[0,0.77,0,0,0],[0,1,0,0,0],[0.27,0,0,0,0],[0.27,1,0,0,0],[0.5,0,0,0,0],[0.5,1,0,0,0],[0.57,0.5,0,0,0],[0.77,0,0,0,0],[0.77,1,0,0,0],[1,0,0,0,0],[1,0.27,0,0,0],[1,0.77,0,0,0],[1,1,0,0,0]];fontStyle=1" parent="1" vertex="1">
          <mxGeometry x="260" y="310" width="30" height="30" as="geometry" />
        </mxCell>
        <mxCell id="bylUsNGu8Ya3y7Lyso6u-24" value="static link" style="rounded=0;whiteSpace=wrap;html=1;" parent="1" vertex="1">
          <mxGeometry x="140" y="160" width="120" height="30" as="geometry" />
        </mxCell>
        <mxCell id="bylUsNGu8Ya3y7Lyso6u-25" value="dynamic link" style="rounded=0;whiteSpace=wrap;html=1;" parent="1" vertex="1">
          <mxGeometry x="140" y="190" width="120" height="30" as="geometry" />
        </mxCell>
        <mxCell id="bylUsNGu8Ya3y7Lyso6u-26" value="reutrn to (A)" style="rounded=0;whiteSpace=wrap;html=1;" parent="1" vertex="1">
          <mxGeometry x="140" y="220" width="120" height="30" as="geometry" />
        </mxCell>
        <mxCell id="bylUsNGu8Ya3y7Lyso6u-27" value="" style="rounded=0;whiteSpace=wrap;html=1;points=[[0,0,0,0,0],[0,0.23,0,0,0],[0,0.5,0,0,0],[0,0.77,0,0,0],[0,1,0,0,0],[0.27,0,0,0,0],[0.27,1,0,0,0],[0.5,0,0,0,0],[0.5,1,0,0,0],[0.57,0.5,0,0,0],[0.77,0,0,0,0],[0.77,1,0,0,0],[1,0,0,0,0],[1,0.27,0,0,0],[1,0.77,0,0,0],[1,1,0,0,0]];" parent="1" vertex="1">
          <mxGeometry x="260" y="160" width="30" height="30" as="geometry" />
        </mxCell>
        <mxCell id="bylUsNGu8Ya3y7Lyso6u-28" value="" style="rounded=0;whiteSpace=wrap;html=1;points=[[0,0,0,0,0],[0,0.23,0,0,0],[0,0.5,0,0,0],[0,0.77,0,0,0],[0,1,0,0,0],[0.27,0,0,0,0],[0.27,1,0,0,0],[0.5,0,0,0,0],[0.5,1,0,0,0],[0.57,0.5,0,0,0],[0.77,0,0,0,0],[0.77,1,0,0,0],[1,0,0,0,0],[1,0.27,0,0,0],[1,0.77,0,0,0],[1,1,0,0,0]];" parent="1" vertex="1">
          <mxGeometry x="260" y="160" width="30" height="30" as="geometry" />
        </mxCell>
        <mxCell id="bylUsNGu8Ya3y7Lyso6u-54" style="edgeStyle=orthogonalEdgeStyle;rounded=0;orthogonalLoop=1;jettySize=auto;html=1;exitX=0.57;exitY=0.5;exitDx=0;exitDy=0;exitPerimeter=0;entryX=1;entryY=1;entryDx=0;entryDy=0;entryPerimeter=0;" parent="1" source="bylUsNGu8Ya3y7Lyso6u-29" target="bylUsNGu8Ya3y7Lyso6u-21" edge="1">
          <mxGeometry relative="1" as="geometry">
            <Array as="points">
              <mxPoint x="336" y="205" />
              <mxPoint x="336" y="340" />
            </Array>
          </mxGeometry>
        </mxCell>
        <mxCell id="bylUsNGu8Ya3y7Lyso6u-30" value="" style="rounded=0;whiteSpace=wrap;html=1;points=[[0,0,0,0,0],[0,0.23,0,0,0],[0,0.5,0,0,0],[0,0.77,0,0,0],[0,1,0,0,0],[0.27,0,0,0,0],[0.27,1,0,0,0],[0.5,0,0,0,0],[0.5,1,0,0,0],[0.57,0.5,0,0,0],[0.77,0,0,0,0],[0.77,1,0,0,0],[1,0,0,0,0],[1,0.27,0,0,0],[1,0.77,0,0,0],[1,1,0,0,0]];fontStyle=1" parent="1" vertex="1">
          <mxGeometry x="260" y="220" width="30" height="30" as="geometry" />
        </mxCell>
        <mxCell id="bylUsNGu8Ya3y7Lyso6u-45" value="static link" style="rounded=0;whiteSpace=wrap;html=1;" parent="1" vertex="1">
          <mxGeometry x="140" y="70" width="120" height="30" as="geometry" />
        </mxCell>
        <mxCell id="bylUsNGu8Ya3y7Lyso6u-46" value="dynamic link" style="rounded=0;whiteSpace=wrap;html=1;" parent="1" vertex="1">
          <mxGeometry x="140" y="100" width="120" height="30" as="geometry" />
        </mxCell>
        <mxCell id="bylUsNGu8Ya3y7Lyso6u-47" value="reutrn to (C)" style="rounded=0;whiteSpace=wrap;html=1;" parent="1" vertex="1">
          <mxGeometry x="140" y="130" width="120" height="30" as="geometry" />
        </mxCell>
        <mxCell id="bylUsNGu8Ya3y7Lyso6u-48" value="" style="rounded=0;whiteSpace=wrap;html=1;points=[[0,0,0,0,0],[0,0.23,0,0,0],[0,0.5,0,0,0],[0,0.77,0,0,0],[0,1,0,0,0],[0.27,0,0,0,0],[0.27,1,0,0,0],[0.5,0,0,0,0],[0.5,1,0,0,0],[0.57,0.5,0,0,0],[0.77,0,0,0,0],[0.77,1,0,0,0],[1,0,0,0,0],[1,0.27,0,0,0],[1,0.77,0,0,0],[1,1,0,0,0]];" parent="1" vertex="1">
          <mxGeometry x="260" y="70" width="30" height="30" as="geometry" />
        </mxCell>
        <mxCell id="bylUsNGu8Ya3y7Lyso6u-49" value="" style="rounded=0;whiteSpace=wrap;html=1;points=[[0,0,0,0,0],[0,0.23,0,0,0],[0,0.5,0,0,0],[0,0.77,0,0,0],[0,1,0,0,0],[0.27,0,0,0,0],[0.27,1,0,0,0],[0.5,0,0,0,0],[0.5,1,0,0,0],[0.57,0.5,0,0,0],[0.77,0,0,0,0],[0.77,1,0,0,0],[1,0,0,0,0],[1,0.27,0,0,0],[1,0.77,0,0,0],[1,1,0,0,0]];" parent="1" vertex="1">
          <mxGeometry x="260" y="70" width="30" height="30" as="geometry" />
        </mxCell>
        <mxCell id="bylUsNGu8Ya3y7Lyso6u-51" value="" style="rounded=0;whiteSpace=wrap;html=1;points=[[0,0,0,0,0],[0,0.23,0,0,0],[0,0.5,0,0,0],[0,0.77,0,0,0],[0,1,0,0,0],[0.27,0,0,0,0],[0.27,1,0,0,0],[0.5,0,0,0,0],[0.5,1,0,0,0],[0.57,0.5,0,0,0],[0.77,0,0,0,0],[0.77,1,0,0,0],[1,0,0,0,0],[1,0.27,0,0,0],[1,0.77,0,0,0],[1,1,0,0,0]];fontStyle=1" parent="1" vertex="1">
          <mxGeometry x="260" y="130" width="30" height="30" as="geometry" />
        </mxCell>
        <mxCell id="bylUsNGu8Ya3y7Lyso6u-64" value="" style="rounded=0;whiteSpace=wrap;html=1;points=[[0,0,0,0,0],[0,0.23,0,0,0],[0,0.5,0,0,0],[0,0.77,0,0,0],[0,1,0,0,0],[0.27,0,0,0,0],[0.27,1,0,0,0],[0.5,0,0,0,0],[0.5,1,0,0,0],[0.57,0.5,0,0,0],[0.77,0,0,0,0],[0.77,1,0,0,0],[1,0,0,0,0],[1,0.27,0,0,0],[1,0.77,0,0,0],[1,1,0,0,0]];fontStyle=1" parent="1" vertex="1">
          <mxGeometry x="260" y="370" width="30" height="30" as="geometry" />
        </mxCell>
        <mxCell id="bylUsNGu8Ya3y7Lyso6u-66" value="" style="rounded=0;whiteSpace=wrap;html=1;points=[[0,0,0,0,0],[0,0.23,0,0,0],[0,0.5,0,0,0],[0,0.77,0,0,0],[0,1,0,0,0],[0.27,0,0,0,0],[0.27,1,0,0,0],[0.5,0,0,0,0],[0.5,1,0,0,0],[0.57,0.5,0,0,0],[0.77,0,0,0,0],[0.77,1,0,0,0],[1,0,0,0,0],[1,0.27,0,0,0],[1,0.77,0,0,0],[1,1,0,0,0]];fontStyle=1" parent="1" vertex="1">
          <mxGeometry x="260" y="400" width="30" height="30" as="geometry" />
        </mxCell>
        <mxCell id="bylUsNGu8Ya3y7Lyso6u-67" value="&lt;meta charset=&quot;utf-8&quot;&gt;ari for&#xa;BIGSUB" style="text;whiteSpace=wrap;html=1;" parent="1" vertex="1">
          <mxGeometry x="87" y="365" width="70" height="40" as="geometry" />
        </mxCell>
        <mxCell id="bylUsNGu8Ya3y7Lyso6u-68" value="ari for&lt;br&gt;A" style="text;whiteSpace=wrap;html=1;" parent="1" vertex="1">
          <mxGeometry x="87" y="275" width="70" height="40" as="geometry" />
        </mxCell>
        <mxCell id="bylUsNGu8Ya3y7Lyso6u-69" value="ari for&lt;br&gt;C" style="text;whiteSpace=wrap;html=1;" parent="1" vertex="1">
          <mxGeometry x="87" y="185" width="70" height="40" as="geometry" />
        </mxCell>
        <mxCell id="bylUsNGu8Ya3y7Lyso6u-70" value="ari for&lt;br&gt;B" style="text;whiteSpace=wrap;html=1;" parent="1" vertex="1">
          <mxGeometry x="87" y="100" width="70" height="40" as="geometry" />
        </mxCell>
        <mxCell id="nQRCEj2XKWMkgmMzYywE-1" value="static link" style="rounded=0;whiteSpace=wrap;html=1;" vertex="1" parent="1">
          <mxGeometry x="493" y="415" width="120" height="30" as="geometry" />
        </mxCell>
        <mxCell id="nQRCEj2XKWMkgmMzYywE-2" value="dynamic link" style="rounded=0;whiteSpace=wrap;html=1;" vertex="1" parent="1">
          <mxGeometry x="493" y="445" width="120" height="30" as="geometry" />
        </mxCell>
        <mxCell id="nQRCEj2XKWMkgmMzYywE-3" value="reutrn" style="rounded=0;whiteSpace=wrap;html=1;" vertex="1" parent="1">
          <mxGeometry x="493" y="475" width="120" height="30" as="geometry" />
        </mxCell>
        <mxCell id="nQRCEj2XKWMkgmMzYywE-8" value="" style="rounded=0;whiteSpace=wrap;html=1;points=[[0,0,0,0,0],[0,0.23,0,0,0],[0,0.5,0,0,0],[0,0.77,0,0,0],[0,1,0,0,0],[0.27,0,0,0,0],[0.27,1,0,0,0],[0.5,0,0,0,0],[0.5,1,0,0,0],[0.57,0.5,0,0,0],[0.77,0,0,0,0],[0.77,1,0,0,0],[1,0,0,0,0],[1,0.27,0,0,0],[1,0.77,0,0,0],[1,1,0,0,0]];fontStyle=1" vertex="1" parent="1">
          <mxGeometry x="613" y="415" width="30" height="30" as="geometry" />
        </mxCell>
        <mxCell id="nQRCEj2XKWMkgmMzYywE-9" value="static link" style="rounded=0;whiteSpace=wrap;html=1;" vertex="1" parent="1">
          <mxGeometry x="493" y="265" width="120" height="30" as="geometry" />
        </mxCell>
        <mxCell id="nQRCEj2XKWMkgmMzYywE-10" value="dynamic link" style="rounded=0;whiteSpace=wrap;html=1;" vertex="1" parent="1">
          <mxGeometry x="493" y="295" width="120" height="30" as="geometry" />
        </mxCell>
        <mxCell id="nQRCEj2XKWMkgmMzYywE-11" value="reutrn to (Bigsub)" style="rounded=0;whiteSpace=wrap;html=1;" vertex="1" parent="1">
          <mxGeometry x="493" y="325" width="120" height="30" as="geometry" />
        </mxCell>
        <mxCell id="nQRCEj2XKWMkgmMzYywE-12" value="" style="rounded=0;whiteSpace=wrap;html=1;points=[[0,0,0,0,0],[0,0.23,0,0,0],[0,0.5,0,0,0],[0,0.77,0,0,0],[0,1,0,0,0],[0.27,0,0,0,0],[0.27,1,0,0,0],[0.5,0,0,0,0],[0.5,1,0,0,0],[0.57,0.5,0,0,0],[0.77,0,0,0,0],[0.77,1,0,0,0],[1,0,0,0,0],[1,0.27,0,0,0],[1,0.77,0,0,0],[1,1,0,0,0]];" vertex="1" parent="1">
          <mxGeometry x="613" y="265" width="30" height="30" as="geometry" />
        </mxCell>
        <mxCell id="nQRCEj2XKWMkgmMzYywE-13" value="" style="rounded=0;whiteSpace=wrap;html=1;points=[[0,0,0,0,0],[0,0.23,0,0,0],[0,0.5,0,0,0],[0,0.77,0,0,0],[0,1,0,0,0],[0.27,0,0,0,0],[0.27,1,0,0,0],[0.5,0,0,0,0],[0.5,1,0,0,0],[0.57,0.5,0,0,0],[0.77,0,0,0,0],[0.77,1,0,0,0],[1,0,0,0,0],[1,0.27,0,0,0],[1,0.77,0,0,0],[1,1,0,0,0]];" vertex="1" parent="1">
          <mxGeometry x="613" y="265" width="30" height="30" as="geometry" />
        </mxCell>
        <mxCell id="nQRCEj2XKWMkgmMzYywE-15" value="" style="rounded=0;whiteSpace=wrap;html=1;points=[[0,0,0,0,0],[0,0.23,0,0,0],[0,0.5,0,0,0],[0,0.77,0,0,0],[0,1,0,0,0],[0.27,0,0,0,0],[0.27,1,0,0,0],[0.5,0,0,0,0],[0.5,1,0,0,0],[0.57,0.5,0,0,0],[0.77,0,0,0,0],[0.77,1,0,0,0],[1,0,0,0,0],[1,0.27,0,0,0],[1,0.77,0,0,0],[1,1,0,0,0]];fontStyle=1" vertex="1" parent="1">
          <mxGeometry x="613" y="325" width="30" height="30" as="geometry" />
        </mxCell>
        <mxCell id="nQRCEj2XKWMkgmMzYywE-16" value="static link" style="rounded=0;whiteSpace=wrap;html=1;" vertex="1" parent="1">
          <mxGeometry x="493" y="145" width="120" height="30" as="geometry" />
        </mxCell>
        <mxCell id="nQRCEj2XKWMkgmMzYywE-17" value="dynamic link" style="rounded=0;whiteSpace=wrap;html=1;" vertex="1" parent="1">
          <mxGeometry x="493" y="175" width="120" height="30" as="geometry" />
        </mxCell>
        <mxCell id="nQRCEj2XKWMkgmMzYywE-18" value="reutrn to (A)" style="rounded=0;whiteSpace=wrap;html=1;" vertex="1" parent="1">
          <mxGeometry x="493" y="205" width="120" height="30" as="geometry" />
        </mxCell>
        <mxCell id="nQRCEj2XKWMkgmMzYywE-19" value="" style="rounded=0;whiteSpace=wrap;html=1;points=[[0,0,0,0,0],[0,0.23,0,0,0],[0,0.5,0,0,0],[0,0.77,0,0,0],[0,1,0,0,0],[0.27,0,0,0,0],[0.27,1,0,0,0],[0.5,0,0,0,0],[0.5,1,0,0,0],[0.57,0.5,0,0,0],[0.77,0,0,0,0],[0.77,1,0,0,0],[1,0,0,0,0],[1,0.27,0,0,0],[1,0.77,0,0,0],[1,1,0,0,0]];" vertex="1" parent="1">
          <mxGeometry x="613" y="175" width="30" height="30" as="geometry" />
        </mxCell>
        <mxCell id="nQRCEj2XKWMkgmMzYywE-20" value="" style="rounded=0;whiteSpace=wrap;html=1;points=[[0,0,0,0,0],[0,0.23,0,0,0],[0,0.5,0,0,0],[0,0.77,0,0,0],[0,1,0,0,0],[0.27,0,0,0,0],[0.27,1,0,0,0],[0.5,0,0,0,0],[0.5,1,0,0,0],[0.57,0.5,0,0,0],[0.77,0,0,0,0],[0.77,1,0,0,0],[1,0,0,0,0],[1,0.27,0,0,0],[1,0.77,0,0,0],[1,1,0,0,0]];" vertex="1" parent="1">
          <mxGeometry x="613" y="145" width="30" height="30" as="geometry" />
        </mxCell>
        <mxCell id="nQRCEj2XKWMkgmMzYywE-22" value="" style="rounded=0;whiteSpace=wrap;html=1;points=[[0,0,0,0,0],[0,0.23,0,0,0],[0,0.5,0,0,0],[0,0.77,0,0,0],[0,1,0,0,0],[0.27,0,0,0,0],[0.27,1,0,0,0],[0.5,0,0,0,0],[0.5,1,0,0,0],[0.57,0.5,0,0,0],[0.77,0,0,0,0],[0.77,1,0,0,0],[1,0,0,0,0],[1,0.27,0,0,0],[1,0.77,0,0,0],[1,1,0,0,0]];fontStyle=1" vertex="1" parent="1">
          <mxGeometry x="613" y="205" width="30" height="30" as="geometry" />
        </mxCell>
        <mxCell id="nQRCEj2XKWMkgmMzYywE-23" value="static link" style="rounded=0;whiteSpace=wrap;html=1;" vertex="1" parent="1">
          <mxGeometry x="493" y="-35" width="120" height="30" as="geometry" />
        </mxCell>
        <mxCell id="nQRCEj2XKWMkgmMzYywE-24" value="dynamic link" style="rounded=0;whiteSpace=wrap;html=1;" vertex="1" parent="1">
          <mxGeometry x="493" y="-5" width="120" height="30" as="geometry" />
        </mxCell>
        <mxCell id="nQRCEj2XKWMkgmMzYywE-25" value="reutrn to (B)" style="rounded=0;whiteSpace=wrap;html=1;" vertex="1" parent="1">
          <mxGeometry x="493" y="25" width="120" height="30" as="geometry" />
        </mxCell>
        <mxCell id="nQRCEj2XKWMkgmMzYywE-26" value="" style="rounded=0;whiteSpace=wrap;html=1;points=[[0,0,0,0,0],[0,0.23,0,0,0],[0,0.5,0,0,0],[0,0.77,0,0,0],[0,1,0,0,0],[0.27,0,0,0,0],[0.27,1,0,0,0],[0.5,0,0,0,0],[0.5,1,0,0,0],[0.57,0.5,0,0,0],[0.77,0,0,0,0],[0.77,1,0,0,0],[1,0,0,0,0],[1,0.27,0,0,0],[1,0.77,0,0,0],[1,1,0,0,0]];" vertex="1" parent="1">
          <mxGeometry x="613" y="-5" width="30" height="30" as="geometry" />
        </mxCell>
        <mxCell id="nQRCEj2XKWMkgmMzYywE-27" value="" style="rounded=0;whiteSpace=wrap;html=1;points=[[0,0,0,0,0],[0,0.23,0,0,0],[0,0.5,0,0,0],[0,0.77,0,0,0],[0,1,0,0,0],[0.27,0,0,0,0],[0.27,1,0,0,0],[0.5,0,0,0,0],[0.5,1,0,0,0],[0.57,0.5,0,0,0],[0.77,0,0,0,0],[0.77,1,0,0,0],[1,0,0,0,0],[1,0.27,0,0,0],[1,0.77,0,0,0],[1,1,0,0,0]];" vertex="1" parent="1">
          <mxGeometry x="613" y="-35" width="30" height="30" as="geometry" />
        </mxCell>
        <mxCell id="nQRCEj2XKWMkgmMzYywE-28" value="" style="rounded=0;whiteSpace=wrap;html=1;points=[[0,0,0,0,0],[0,0.23,0,0,0],[0,0.5,0,0,0],[0,0.77,0,0,0],[0,1,0,0,0],[0.27,0,0,0,0],[0.27,1,0,0,0],[0.5,0,0,0,0],[0.5,1,0,0,0],[0.57,0.5,0,0,0],[0.77,0,0,0,0],[0.77,1,0,0,0],[1,0,0,0,0],[1,0.27,0,0,0],[1,0.77,0,0,0],[1,1,0,0,0]];fontStyle=1" vertex="1" parent="1">
          <mxGeometry x="613" y="25" width="30" height="30" as="geometry" />
        </mxCell>
        <mxCell id="nQRCEj2XKWMkgmMzYywE-29" value="" style="rounded=0;whiteSpace=wrap;html=1;points=[[0,0,0,0,0],[0,0.23,0,0,0],[0,0.5,0,0,0],[0,0.77,0,0,0],[0,1,0,0,0],[0.27,0,0,0,0],[0.27,1,0,0,0],[0.5,0,0,0,0],[0.5,1,0,0,0],[0.57,0.5,0,0,0],[0.77,0,0,0,0],[0.77,1,0,0,0],[1,0,0,0,0],[1,0.27,0,0,0],[1,0.77,0,0,0],[1,1,0,0,0]];fontStyle=1" vertex="1" parent="1">
          <mxGeometry x="613" y="445" width="30" height="30" as="geometry" />
        </mxCell>
        <mxCell id="nQRCEj2XKWMkgmMzYywE-30" value="" style="rounded=0;whiteSpace=wrap;html=1;points=[[0,0,0,0,0],[0,0.23,0,0,0],[0,0.5,0,0,0],[0,0.77,0,0,0],[0,1,0,0,0],[0.27,0,0,0,0],[0.27,1,0,0,0],[0.5,0,0,0,0],[0.5,1,0,0,0],[0.57,0.5,0,0,0],[0.77,0,0,0,0],[0.77,1,0,0,0],[1,0,0,0,0],[1,0.27,0,0,0],[1,0.77,0,0,0],[1,1,0,0,0]];fontStyle=1" vertex="1" parent="1">
          <mxGeometry x="613" y="475" width="30" height="30" as="geometry" />
        </mxCell>
        <mxCell id="nQRCEj2XKWMkgmMzYywE-31" value="&lt;meta charset=&quot;utf-8&quot;&gt;ari for&#xa;BIGSUB" style="text;whiteSpace=wrap;html=1;" vertex="1" parent="1">
          <mxGeometry x="440" y="405" width="70" height="40" as="geometry" />
        </mxCell>
        <mxCell id="nQRCEj2XKWMkgmMzYywE-32" value="ari for&lt;br&gt;A" style="text;whiteSpace=wrap;html=1;" vertex="1" parent="1">
          <mxGeometry x="440" y="265" width="70" height="40" as="geometry" />
        </mxCell>
        <mxCell id="nQRCEj2XKWMkgmMzYywE-33" value="ari for&lt;br&gt;B" style="text;whiteSpace=wrap;html=1;" vertex="1" parent="1">
          <mxGeometry x="440" y="105" width="70" height="40" as="geometry" />
        </mxCell>
        <mxCell id="nQRCEj2XKWMkgmMzYywE-41" value="Local" style="rounded=0;whiteSpace=wrap;html=1;" vertex="1" parent="1">
          <mxGeometry x="493" y="235" width="127" height="30" as="geometry" />
        </mxCell>
        <mxCell id="nQRCEj2XKWMkgmMzYywE-42" value="X" style="rounded=0;whiteSpace=wrap;html=1;points=[[0,0,0,0,0],[0,0.23,0,0,0],[0,0.5,0,0,0],[0,0.77,0,0,0],[0,1,0,0,0],[0.27,0,0,0,0],[0.27,1,0,0,0],[0.5,0,0,0,0],[0.5,1,0,0,0],[0.57,0.5,0,0,0],[0.77,0,0,0,0],[0.77,1,0,0,0],[1,0,0,0,0],[1,0.27,0,0,0],[1,0.77,0,0,0],[1,1,0,0,0]];fontStyle=1" vertex="1" parent="1">
          <mxGeometry x="613" y="235" width="30" height="30" as="geometry" />
        </mxCell>
        <mxCell id="nQRCEj2XKWMkgmMzYywE-43" value="Parameter" style="rounded=0;whiteSpace=wrap;html=1;" vertex="1" parent="1">
          <mxGeometry x="493" y="115" width="120" height="30" as="geometry" />
        </mxCell>
        <mxCell id="nQRCEj2XKWMkgmMzYywE-44" value="Sum" style="rounded=0;whiteSpace=wrap;html=1;points=[[0,0,0,0,0],[0,0.23,0,0,0],[0,0.5,0,0,0],[0,0.77,0,0,0],[0,1,0,0,0],[0.27,0,0,0,0],[0.27,1,0,0,0],[0.5,0,0,0,0],[0.5,1,0,0,0],[0.57,0.5,0,0,0],[0.77,0,0,0,0],[0.77,1,0,0,0],[1,0,0,0,0],[1,0.27,0,0,0],[1,0.77,0,0,0],[1,1,0,0,0]];" vertex="1" parent="1">
          <mxGeometry x="613" y="115" width="30" height="30" as="geometry" />
        </mxCell>
        <mxCell id="nQRCEj2XKWMkgmMzYywE-45" value="Local" style="rounded=0;whiteSpace=wrap;html=1;" vertex="1" parent="1">
          <mxGeometry x="493" y="85" width="120" height="30" as="geometry" />
        </mxCell>
        <mxCell id="nQRCEj2XKWMkgmMzYywE-46" value="Z" style="rounded=0;whiteSpace=wrap;html=1;points=[[0,0,0,0,0],[0,0.23,0,0,0],[0,0.5,0,0,0],[0,0.77,0,0,0],[0,1,0,0,0],[0.27,0,0,0,0],[0.27,1,0,0,0],[0.5,0,0,0,0],[0.5,1,0,0,0],[0.57,0.5,0,0,0],[0.77,0,0,0,0],[0.77,1,0,0,0],[1,0,0,0,0],[1,0.27,0,0,0],[1,0.77,0,0,0],[1,1,0,0,0]];" vertex="1" parent="1">
          <mxGeometry x="613" y="85" width="30" height="30" as="geometry" />
        </mxCell>
        <mxCell id="nQRCEj2XKWMkgmMzYywE-47" value="Local" style="rounded=0;whiteSpace=wrap;html=1;" vertex="1" parent="1">
          <mxGeometry x="493" y="55" width="120" height="30" as="geometry" />
        </mxCell>
        <mxCell id="nQRCEj2XKWMkgmMzYywE-48" value="&lt;span style=&quot;white-space: pre&quot;&gt;Y&lt;/span&gt;" style="rounded=0;whiteSpace=wrap;html=1;points=[[0,0,0,0,0],[0,0.23,0,0,0],[0,0.5,0,0,0],[0,0.77,0,0,0],[0,1,0,0,0],[0.27,0,0,0,0],[0.27,1,0,0,0],[0.5,0,0,0,0],[0.5,1,0,0,0],[0.57,0.5,0,0,0],[0.77,0,0,0,0],[0.77,1,0,0,0],[1,0,0,0,0],[1,0.27,0,0,0],[1,0.77,0,0,0],[1,1,0,0,0]];" vertex="1" parent="1">
          <mxGeometry x="613" y="55" width="30" height="30" as="geometry" />
        </mxCell>
        <mxCell id="nQRCEj2XKWMkgmMzYywE-49" value="Local" style="rounded=0;whiteSpace=wrap;html=1;" vertex="1" parent="1">
          <mxGeometry x="493" y="355" width="120" height="30" as="geometry" />
        </mxCell>
        <mxCell id="nQRCEj2XKWMkgmMzYywE-50" value="MySum" style="rounded=0;whiteSpace=wrap;html=1;points=[[0,0,0,0,0],[0,0.23,0,0,0],[0,0.5,0,0,0],[0,0.77,0,0,0],[0,1,0,0,0],[0.27,0,0,0,0],[0.27,1,0,0,0],[0.5,0,0,0,0],[0.5,1,0,0,0],[0.57,0.5,0,0,0],[0.77,0,0,0,0],[0.77,1,0,0,0],[1,0,0,0,0],[1,0.27,0,0,0],[1,0.77,0,0,0],[1,1,0,0,0]];fontSize=8;" vertex="1" parent="1">
          <mxGeometry x="613" y="355" width="30" height="30" as="geometry" />
        </mxCell>
        <mxCell id="nQRCEj2XKWMkgmMzYywE-51" value="Local" style="rounded=0;whiteSpace=wrap;html=1;" vertex="1" parent="1">
          <mxGeometry x="493" y="385" width="120" height="30" as="geometry" />
        </mxCell>
        <mxCell id="nQRCEj2XKWMkgmMzYywE-52" value="L" style="rounded=0;whiteSpace=wrap;html=1;points=[[0,0,0,0,0],[0,0.23,0,0,0],[0,0.5,0,0,0],[0,0.77,0,0,0],[0,1,0,0,0],[0.27,0,0,0,0],[0.27,1,0,0,0],[0.5,0,0,0,0],[0.5,1,0,0,0],[0.57,0.5,0,0,0],[0.77,0,0,0,0],[0.77,1,0,0,0],[1,0,0,0,0],[1,0.27,0,0,0],[1,0.77,0,0,0],[1,1,0,0,0]];" vertex="1" parent="1">
          <mxGeometry x="613" y="385" width="30" height="30" as="geometry" />
        </mxCell>
        <mxCell id="nQRCEj2XKWMkgmMzYywE-53" value="Parameter" style="rounded=0;whiteSpace=wrap;html=1;" vertex="1" parent="1">
          <mxGeometry x="493" y="-65" width="120" height="30" as="geometry" />
        </mxCell>
        <mxCell id="nQRCEj2XKWMkgmMzYywE-54" value="Plums" style="rounded=0;whiteSpace=wrap;html=1;points=[[0,0,0,0,0],[0,0.23,0,0,0],[0,0.5,0,0,0],[0,0.77,0,0,0],[0,1,0,0,0],[0.27,0,0,0,0],[0.27,1,0,0,0],[0.5,0,0,0,0],[0.5,1,0,0,0],[0.57,0.5,0,0,0],[0.77,0,0,0,0],[0.77,1,0,0,0],[1,0,0,0,0],[1,0.27,0,0,0],[1,0.77,0,0,0],[1,1,0,0,0]];" vertex="1" parent="1">
          <mxGeometry x="613" y="-65" width="30" height="30" as="geometry" />
        </mxCell>
        <mxCell id="nQRCEj2XKWMkgmMzYywE-55" value="ari for&lt;br&gt;C" style="text;whiteSpace=wrap;html=1;" vertex="1" parent="1">
          <mxGeometry x="440" y="-20" width="70" height="40" as="geometry" />
        </mxCell>
        <mxCell id="nQRCEj2XKWMkgmMzYywE-57" style="edgeStyle=orthogonalEdgeStyle;rounded=0;orthogonalLoop=1;jettySize=auto;html=1;exitX=0.57;exitY=0.5;exitDx=0;exitDy=0;exitPerimeter=0;fontSize=8;entryX=1;entryY=0;entryDx=0;entryDy=0;entryPerimeter=0;" edge="1" parent="1" source="nQRCEj2XKWMkgmMzYywE-19" target="nQRCEj2XKWMkgmMzYywE-50">
          <mxGeometry relative="1" as="geometry">
            <mxPoint x="649.9999999999998" y="360" as="targetPoint" />
            <Array as="points">
              <mxPoint x="700" y="190" />
              <mxPoint x="700" y="355" />
            </Array>
          </mxGeometry>
        </mxCell>
        <mxCell id="nQRCEj2XKWMkgmMzYywE-56" style="edgeStyle=orthogonalEdgeStyle;rounded=0;orthogonalLoop=1;jettySize=auto;html=1;exitX=0.57;exitY=0.5;exitDx=0;exitDy=0;exitPerimeter=0;entryX=1;entryY=1;entryDx=0;entryDy=0;entryPerimeter=0;fontSize=8;" edge="1" parent="1" source="nQRCEj2XKWMkgmMzYywE-7" target="nQRCEj2XKWMkgmMzYywE-30">
          <mxGeometry relative="1" as="geometry">
            <Array as="points">
              <mxPoint x="720" y="310" />
              <mxPoint x="720" y="505" />
            </Array>
          </mxGeometry>
        </mxCell>
        <mxCell id="nQRCEj2XKWMkgmMzYywE-59" style="edgeStyle=orthogonalEdgeStyle;rounded=0;orthogonalLoop=1;jettySize=auto;html=1;exitX=0.57;exitY=0.5;exitDx=0;exitDy=0;exitPerimeter=0;entryX=1;entryY=1;entryDx=0;entryDy=0;entryPerimeter=0;fontSize=8;" edge="1" parent="1" source="nQRCEj2XKWMkgmMzYywE-26" target="nQRCEj2XKWMkgmMzYywE-22">
          <mxGeometry relative="1" as="geometry">
            <Array as="points">
              <mxPoint x="680" y="10" />
              <mxPoint x="680" y="235" />
            </Array>
          </mxGeometry>
        </mxCell>
      </root>
    </mxGraphModel>
  </diagram>
</mxfile>
